<svg width="168" height="27" viewBox="0 0 168 27" fill="none" xmlns="http://www.w3.org/2000/svg">
<g clip-path="url(#clip0_1_4)">
<g filter="url(#filter0_d_1_4)">
<path d="M29.5371 4.76953C30.6712 4.82031 31.5514 4.8457 32.1777 4.8457H33.1172C33.388 4.8457 33.7266 4.83724 34.1328 4.82031C34.4714 4.80339 34.903 4.79492 35.4277 4.79492C35.9525 4.77799 36.5788 4.7526 37.3066 4.71875C36.9681 4.95573 36.6973 5.18424 36.4941 5.4043C36.291 5.62435 36.1302 5.81901 36.0117 5.98828C35.8763 6.19141 35.7832 6.3776 35.7324 6.54688C35.6139 6.98698 35.5632 7.58789 35.5801 8.34961C35.6139 9.0944 35.6901 9.9069 35.8086 10.7871C35.9271 11.6504 36.071 12.5306 36.2402 13.4277C36.4095 14.3249 36.5788 15.1374 36.748 15.8652C36.9342 16.5931 37.0951 17.194 37.2305 17.668C37.3828 18.125 37.4928 18.3535 37.5605 18.3535C37.6283 18.3535 37.7552 18.1081 37.9414 17.6172C38.1445 17.1263 38.373 16.5085 38.627 15.7637C38.8809 15.002 39.1432 14.181 39.4141 13.3008C39.6849 12.4036 39.9303 11.5573 40.1504 10.7617C40.3874 9.94922 40.582 9.25521 40.7344 8.67969C40.8867 8.08724 40.9629 7.72331 40.9629 7.58789C40.946 7.40169 40.8867 7.20703 40.7852 7.00391C40.7005 6.81771 40.5482 6.60612 40.3281 6.36914C40.125 6.11523 39.8372 5.82747 39.4648 5.50586C39.9896 5.48893 40.4382 5.47201 40.8105 5.45508C41.1999 5.43815 41.5299 5.42969 41.8008 5.42969H42.5879H46.6504C46.2272 5.71745 45.8633 5.99674 45.5586 6.26758C45.2708 6.53841 45.0339 6.79232 44.8477 7.0293C44.6276 7.30013 44.4414 7.55404 44.2891 7.79102C44.1198 8.14648 43.8405 8.91667 43.4512 10.1016C43.2819 10.6094 43.0872 11.2272 42.8672 11.9551C42.6471 12.6829 42.3848 13.5547 42.0801 14.5703C41.7754 15.5859 41.4368 16.7624 41.0645 18.0996C40.6921 19.4199 40.2689 20.9264 39.7949 22.6191L36.2656 23.0762C35.8424 21.7559 35.4701 20.554 35.1484 19.4707C34.8438 18.3704 34.5729 17.431 34.3359 16.6523C34.0651 15.7383 33.8366 14.9173 33.6504 14.1895C33.3965 13.3092 33.1764 12.4206 32.9902 11.5234C32.821 10.6094 32.6686 9.78841 32.5332 9.06055C32.4147 8.31576 32.3047 7.69792 32.2031 7.20703C32.1016 6.71615 31.9915 6.42839 31.873 6.34375C31.7715 6.25911 31.6191 6.14909 31.416 6.01367C31.2298 5.89518 30.9928 5.74284 30.7051 5.55664C30.4004 5.35352 30.0111 5.09115 29.5371 4.76953ZM44.8223 11.6504L49.4941 11.7012C49.2233 12.7337 49.0202 13.6139 48.8848 14.3418C48.7663 15.0697 48.6901 15.679 48.6562 16.1699C48.5885 16.7285 48.5716 17.2025 48.6055 17.5918C48.6562 17.9473 48.7409 18.3281 48.8594 18.7344C48.9609 19.0729 49.1133 19.4622 49.3164 19.9023C49.5195 20.3424 49.7904 20.7826 50.1289 21.2227C49.9258 21.1549 49.7057 21.1042 49.4688 21.0703C49.2318 21.0365 49.0117 21.0111 48.8086 20.9941C48.5716 20.9772 48.3346 20.9772 48.0977 20.9941C47.8607 21.0111 47.5983 21.0365 47.3105 21.0703C47.0736 21.1042 46.7858 21.1465 46.4473 21.1973C46.1087 21.248 45.7533 21.3158 45.3809 21.4004C45.6348 20.6387 45.8294 19.9785 45.9648 19.4199C46.1172 18.8613 46.2272 18.3958 46.2949 18.0234C46.3626 17.5833 46.4049 17.2279 46.4219 16.957C46.4219 16.6185 46.4219 16.2376 46.4219 15.8145C46.4219 15.3743 46.4219 14.9512 46.4219 14.5449C46.4219 14.1387 46.4134 13.7832 46.3965 13.4785C46.3796 13.1569 46.3457 12.9538 46.2949 12.8691L46.041 12.6152C45.9395 12.5306 45.7871 12.4121 45.584 12.2598C45.3978 12.0905 45.1439 11.8874 44.8223 11.6504ZM46.625 7.74023C46.9805 7.55404 47.3359 7.50326 47.6914 7.58789C48.0638 7.67253 48.3516 7.83333 48.5547 8.07031C48.7578 8.30729 48.8255 8.58659 48.7578 8.9082C48.707 9.22982 48.4362 9.54297 47.9453 9.84766C47.4544 10.1354 47.0228 10.237 46.6504 10.1523C46.278 10.0677 46.0156 9.88997 45.8633 9.61914C45.7109 9.34831 45.6855 9.03516 45.7871 8.67969C45.8887 8.30729 46.168 7.99414 46.625 7.74023ZM62.2402 8.50195C62.0879 8.87435 61.9525 9.21289 61.834 9.51758C61.7324 9.82227 61.6393 10.0931 61.5547 10.3301C61.4701 10.6009 61.3939 10.8379 61.3262 11.041C61.2585 11.278 61.1823 11.5488 61.0977 11.8535C61.013 12.1243 60.903 12.4629 60.7676 12.8691C60.6491 13.2585 60.5052 13.724 60.3359 14.2656C60.2005 13.4531 59.9551 12.8099 59.5996 12.3359C59.2441 11.8451 58.8802 11.4642 58.5078 11.1934C58.0677 10.8887 57.5938 10.6686 57.0859 10.5332C56.1719 10.3809 55.5117 10.3978 55.1055 10.584C54.6992 10.7702 54.4284 11.0072 54.293 11.2949C54.2253 11.4134 54.1491 11.5658 54.0645 11.752C53.9967 11.9212 53.9375 12.099 53.8867 12.2852C53.8529 12.4714 53.8444 12.6576 53.8613 12.8438C53.8783 13.0299 53.9544 13.1823 54.0898 13.3008C54.1745 13.3854 54.3945 13.5039 54.75 13.6562C55.1055 13.7917 55.5286 13.9525 56.0195 14.1387C56.5273 14.3079 57.0605 14.4941 57.6191 14.6973C58.1947 14.9004 58.7363 15.1035 59.2441 15.3066C59.752 15.5098 60.1921 15.7129 60.5645 15.916C60.9368 16.1191 61.1823 16.3053 61.3008 16.4746C61.4023 16.6439 61.5124 16.8724 61.6309 17.1602C61.7663 17.431 61.8594 17.7357 61.9102 18.0742C61.9779 18.3958 61.9948 18.7344 61.9609 19.0898C61.944 19.4284 61.8509 19.7669 61.6816 20.1055C61.5124 20.444 61.2415 20.7572 60.8691 21.0449C60.5137 21.3327 60.0312 21.5697 59.4219 21.7559C58.7109 21.9759 58.0254 22.0352 57.3652 21.9336C56.7051 21.832 56.0957 21.6797 55.5371 21.4766C54.9954 21.2734 54.5215 21.0788 54.1152 20.8926C53.709 20.6895 53.4212 20.6048 53.252 20.6387C53.0658 20.6725 52.8542 20.7656 52.6172 20.918C52.3802 21.0703 52.1517 21.2311 51.9316 21.4004C51.7285 21.5527 51.5508 21.6966 51.3984 21.832C51.2461 21.9505 51.1699 21.9928 51.1699 21.959C51.1699 21.9251 51.1953 21.8236 51.2461 21.6543C51.3138 21.485 51.3815 21.2819 51.4492 21.0449C51.5339 20.791 51.61 20.5202 51.6777 20.2324C51.7624 19.9277 51.8216 19.64 51.8555 19.3691C51.8893 19.1491 51.9316 18.8783 51.9824 18.5566C52.0163 18.2689 52.0586 17.9219 52.1094 17.5156C52.1771 17.0924 52.2533 16.5846 52.3379 15.9922C52.4225 16.4323 52.541 16.8132 52.6934 17.1348C52.8626 17.4564 53.0234 17.7357 53.1758 17.9727C53.362 18.2435 53.5397 18.472 53.709 18.6582C53.9629 18.8952 54.2591 19.1152 54.5977 19.3184C54.9531 19.5215 55.3086 19.6992 55.6641 19.8516C56.0195 19.987 56.3581 20.0716 56.6797 20.1055C57.0013 20.1393 57.2721 20.1055 57.4922 20.0039C57.7122 19.9023 57.8984 19.7161 58.0508 19.4453C58.2201 19.1745 58.3385 18.8783 58.4062 18.5566C58.474 18.235 58.4993 17.9303 58.4824 17.6426C58.4655 17.3379 58.3893 17.0924 58.2539 16.9062C58.1523 16.7878 57.9154 16.6354 57.543 16.4492C57.1875 16.263 56.7559 16.0599 56.248 15.8398C55.7572 15.6198 55.2324 15.3913 54.6738 15.1543C54.1322 14.9173 53.6159 14.6803 53.125 14.4434C52.651 14.1895 52.2533 13.9525 51.9316 13.7324C51.627 13.4954 51.4577 13.2839 51.4238 13.0977C51.39 12.8268 51.3646 12.5306 51.3477 12.209C51.3307 11.8704 51.3477 11.5404 51.3984 11.2188C51.4661 10.8802 51.5846 10.5586 51.7539 10.2539C51.9401 9.94922 52.2109 9.69531 52.5664 9.49219C52.8034 9.35677 53.1165 9.25521 53.5059 9.1875C53.8952 9.11979 54.3268 9.08594 54.8008 9.08594C55.2747 9.06901 55.7656 9.08594 56.2734 9.13672C56.7812 9.17057 57.2637 9.22135 57.7207 9.28906C58.1947 9.33984 58.6178 9.40755 58.9902 9.49219C59.3796 9.57682 59.6758 9.65299 59.8789 9.7207C60.1159 9.80534 60.3698 9.8138 60.6406 9.74609C60.8776 9.69531 61.1315 9.58529 61.4023 9.41602C61.6732 9.24674 61.9525 8.94206 62.2402 8.50195ZM63.2812 11.3203C63.7214 11.4049 64.1022 11.4727 64.4238 11.5234C64.7624 11.5573 65.0501 11.5911 65.2871 11.625C65.5579 11.6589 65.7949 11.6842 65.998 11.7012C66.2012 11.7181 66.4382 11.735 66.709 11.752C67.166 11.7689 67.8092 11.7689 68.6387 11.752C68.1478 11.7181 67.7585 11.8451 67.4707 12.1328C67.1999 12.4036 66.9967 12.7168 66.8613 13.0723C66.6921 13.4954 66.599 13.9863 66.582 14.5449C66.5482 15.2897 66.5651 15.9668 66.6328 16.5762C66.7174 17.1686 66.8613 17.6764 67.0645 18.0996C67.2845 18.5059 67.5723 18.8105 67.9277 19.0137C68.2832 19.1999 68.7402 19.2507 69.2988 19.166C69.8574 19.0814 70.2806 18.8867 70.5684 18.582C70.873 18.2604 71.0931 17.8711 71.2285 17.4141C71.3639 16.9401 71.4401 16.4069 71.457 15.8145C71.4909 15.222 71.5163 14.6042 71.5332 13.9609C71.5332 13.3177 71.5247 12.8607 71.5078 12.5898C71.5078 12.3021 71.4993 12.1159 71.4824 12.0312C71.4655 11.9466 71.4401 11.9128 71.4062 11.9297C71.3724 11.9297 71.3301 11.8874 71.2793 11.8027C71.2454 11.735 71.1947 11.6673 71.127 11.5996C71.0762 11.5319 71.0085 11.4557 70.9238 11.3711C70.8392 11.2695 70.7461 11.168 70.6445 11.0664C71.0846 11.0833 71.474 11.1003 71.8125 11.1172C72.168 11.1172 72.4642 11.1257 72.7012 11.1426C72.972 11.1595 73.209 11.1764 73.4121 11.1934C73.5983 11.2103 73.8438 11.2357 74.1484 11.2695C74.4023 11.3034 74.7324 11.3372 75.1387 11.3711C75.5449 11.4049 76.0273 11.4557 76.5859 11.5234C76.1966 11.6081 75.8835 11.735 75.6465 11.9043C75.4095 12.0736 75.2233 12.2428 75.0879 12.4121C74.9355 12.5983 74.8255 12.8014 74.7578 13.0215C74.707 13.3092 74.707 13.7493 74.7578 14.3418C74.7917 14.8665 74.8763 15.5859 75.0117 16.5C75.1471 17.4141 75.3587 18.6159 75.6465 20.1055L73.6406 21.2988L73.2344 17.9219C72.7435 18.7513 72.2188 19.3945 71.6602 19.8516C71.1185 20.2917 70.6107 20.6133 70.1367 20.8164C69.5781 21.0534 69.0365 21.1888 68.5117 21.2227C67.8177 21.2227 67.2168 21.1803 66.709 21.0957C66.2181 20.9941 65.7949 20.8672 65.4395 20.7148C65.084 20.5625 64.7962 20.3932 64.5762 20.207C64.373 20.0039 64.2207 19.8008 64.1191 19.5977C63.8822 19.1745 63.7552 18.6328 63.7383 17.9727C63.7214 17.2956 63.7467 16.627 63.8145 15.9668C63.8822 15.2897 63.9583 14.6719 64.043 14.1133C64.1276 13.5547 64.153 13.1738 64.1191 12.9707C64.0853 12.8184 64.0345 12.6491 63.9668 12.4629C63.8991 12.3105 63.8145 12.1413 63.7129 11.9551C63.6113 11.752 63.4674 11.5404 63.2812 11.3203ZM78.8711 12.7168C78.9557 12.6152 79.0065 12.429 79.0234 12.1582C79.0573 11.8704 79.125 11.5488 79.2266 11.1934C79.3451 10.8379 79.5397 10.4655 79.8105 10.0762C80.0814 9.68685 80.5215 9.32292 81.1309 8.98438C81.7233 8.64583 82.2988 8.44271 82.8574 8.375C83.416 8.30729 83.9492 8.33268 84.457 8.45117C84.9648 8.56966 85.4388 8.75586 85.8789 9.00977C86.3359 9.26367 86.7507 9.54297 87.123 9.84766C87.377 10.0508 87.5801 10.347 87.7324 10.7363C87.8848 11.1087 88.0033 11.5319 88.0879 12.0059C88.1725 12.4798 88.2318 12.9792 88.2656 13.5039C88.3164 14.0117 88.3503 14.5111 88.3672 15.002C88.3841 15.4759 88.3926 15.916 88.3926 16.3223C88.4095 16.7116 88.4434 17.0332 88.4941 17.2871C88.5618 17.6595 88.6803 17.9811 88.8496 18.252C89.0189 18.5059 89.2051 18.7259 89.4082 18.9121C89.6113 19.0814 89.8145 19.2168 90.0176 19.3184C90.2207 19.4199 90.3984 19.4961 90.5508 19.5469C90.6523 19.5977 90.7454 19.6315 90.8301 19.6484C90.9993 19.7161 91.1178 19.7161 91.1855 19.6484C91.084 19.8854 90.9909 20.0885 90.9062 20.2578C90.8216 20.4271 90.7539 20.571 90.7031 20.6895C90.6354 20.8249 90.5762 20.9349 90.5254 21.0195C90.4746 21.1211 90.4154 21.2142 90.3477 21.2988C90.2969 21.3835 90.2292 21.4766 90.1445 21.5781C90.0599 21.6797 89.9753 21.7897 89.8906 21.9082C89.6706 21.8236 89.459 21.722 89.2559 21.6035C89.0697 21.485 88.9004 21.375 88.748 21.2734C88.5618 21.1549 88.3926 21.0365 88.2402 20.918C88.0879 20.7995 87.944 20.6641 87.8086 20.5117C87.6901 20.3763 87.5632 20.2324 87.4277 20.0801C87.3092 19.9277 87.2077 19.7585 87.123 19.5723C87.0215 19.7923 86.776 20.1055 86.3867 20.5117C86.0143 20.918 85.5234 21.2904 84.9141 21.6289C84.3047 21.9505 83.5938 22.179 82.7812 22.3145C81.9857 22.4499 81.1055 22.3568 80.1406 22.0352C79.7174 21.8997 79.3197 21.7051 78.9473 21.4512C78.5749 21.1803 78.2533 20.8587 77.9824 20.4863C77.7285 20.1139 77.5423 19.6908 77.4238 19.2168C77.3223 18.7259 77.3307 18.1842 77.4492 17.5918C77.5677 16.9993 77.7793 16.5 78.084 16.0938C78.3887 15.6875 78.7526 15.3574 79.1758 15.1035C79.599 14.8496 80.0729 14.6549 80.5977 14.5195C81.1224 14.3841 81.6641 14.291 82.2227 14.2402C82.6628 14.2233 83.1029 14.2487 83.543 14.3164C83.9154 14.3841 84.3047 14.5111 84.7109 14.6973C85.1172 14.8665 85.4642 15.1289 85.752 15.4844C85.735 14.5872 85.7012 13.8763 85.6504 13.3516C85.6165 12.8099 85.5827 12.3952 85.5488 12.1074C85.4811 11.7689 85.4219 11.5319 85.3711 11.3965C85.2865 11.278 85.1934 11.1426 85.0918 10.9902C85.0072 10.8379 84.8971 10.7025 84.7617 10.584C84.6263 10.4486 84.457 10.3385 84.2539 10.2539C84.0508 10.1693 83.8138 10.1354 83.543 10.1523C83.2552 10.1693 83.0267 10.2454 82.8574 10.3809C82.6882 10.5163 82.5527 10.6771 82.4512 10.8633C82.3665 11.0326 82.3158 11.2188 82.2988 11.4219C82.2819 11.625 82.2904 11.8027 82.3242 11.9551C82.3581 12.0566 82.4089 12.1667 82.4766 12.2852C82.5443 12.3867 82.6374 12.4967 82.7559 12.6152C82.8743 12.7337 83.0352 12.8353 83.2383 12.9199C82.849 12.9707 82.502 13.013 82.1973 13.0469C81.8926 13.0638 81.6302 13.0892 81.4102 13.123C81.1562 13.1569 80.9362 13.1823 80.75 13.1992C80.5638 13.2161 80.3438 13.25 80.0898 13.3008C79.8698 13.3346 79.599 13.377 79.2773 13.4277C78.9557 13.4785 78.5833 13.5462 78.1602 13.6309C78.2617 13.5124 78.3548 13.4023 78.4395 13.3008C78.5241 13.1823 78.6003 13.0807 78.668 12.9961C78.7357 12.8945 78.8034 12.8014 78.8711 12.7168ZM82.6797 15.7383C82.375 15.7552 82.0703 15.8314 81.7656 15.9668C81.4609 16.0853 81.1901 16.263 80.9531 16.5C80.7161 16.7201 80.513 16.9824 80.3438 17.2871C80.1914 17.5749 80.1152 17.8965 80.1152 18.252C80.1152 18.6074 80.1999 18.9206 80.3691 19.1914C80.5553 19.4453 80.7923 19.6569 81.0801 19.8262C81.3848 19.9954 81.7064 20.097 82.0449 20.1309C82.4004 20.1647 82.7474 20.1309 83.0859 20.0293C83.4076 19.9108 83.7122 19.7246 84 19.4707C84.2878 19.1999 84.5332 18.9121 84.7363 18.6074C84.9395 18.2858 85.0833 17.9727 85.168 17.668C85.2526 17.3464 85.2611 17.084 85.1934 16.8809C85.0579 16.4408 84.7533 16.1361 84.2793 15.9668C83.8053 15.7806 83.2721 15.7044 82.6797 15.7383ZM91.5156 23.7109C91.6849 23.457 91.8203 23.2201 91.9219 23C92.0234 22.7799 92.1081 22.5938 92.1758 22.4414C92.2435 22.2552 92.2943 22.0859 92.3281 21.9336C92.3451 21.832 92.3535 21.5358 92.3535 21.0449C92.3535 20.554 92.3366 19.9362 92.3027 19.1914C92.2858 18.4466 92.2604 17.6087 92.2266 16.6777C92.2096 15.7467 92.1758 14.7988 92.125 13.834C92.0911 12.8691 92.0488 11.9297 91.998 11.0156C91.9642 10.1016 91.9303 9.2806 91.8965 8.55273C91.8626 7.80794 91.8288 7.19857 91.7949 6.72461C91.7611 6.25065 91.7357 5.97982 91.7188 5.91211C91.6849 5.81055 91.6257 5.70898 91.541 5.60742C91.3717 5.4043 91.084 5.20964 90.6777 5.02344C91.541 4.80339 92.2012 4.62565 92.6582 4.49023C92.929 4.42253 93.166 4.35482 93.3691 4.28711C93.5553 4.2194 93.7415 4.15169 93.9277 4.08398C94.0801 4.01628 94.2493 3.9401 94.4355 3.85547C94.6217 3.75391 94.791 3.64388 94.9434 3.52539C94.8587 4.01628 94.791 4.49023 94.7402 4.94727C94.6895 5.4043 94.6471 5.82747 94.6133 6.2168C94.5794 6.6569 94.5625 7.08008 94.5625 7.48633C94.4779 8.31576 94.4271 9.22135 94.4102 10.2031C94.4102 11.168 94.4186 12.1497 94.4355 13.1484C94.4525 14.1471 94.4863 15.1204 94.5371 16.0684C94.5879 17.0163 94.6387 17.8796 94.6895 18.6582C94.7572 19.4199 94.8164 20.0716 94.8672 20.6133C94.9349 21.138 94.9857 21.4766 95.0195 21.6289C95.0872 21.8828 95.1549 22.1283 95.2227 22.3652C95.2904 22.5684 95.3665 22.7799 95.4512 23C95.5358 23.237 95.6374 23.4232 95.7559 23.5586H93.293C93.0729 23.5586 92.8613 23.5671 92.6582 23.584C92.472 23.6009 92.2773 23.6178 92.0742 23.6348C91.8711 23.6517 91.6849 23.6771 91.5156 23.7109ZM106.217 4.66797C107.3 4.65104 108.189 4.8457 108.883 5.25195C109.594 5.6582 110.169 6.14062 110.609 6.69922C111.049 7.25781 111.388 7.82487 111.625 8.40039C111.862 8.95898 112.048 9.39909 112.184 9.7207C112.217 9.80534 112.285 9.91536 112.387 10.0508C112.471 10.1693 112.59 10.3132 112.742 10.4824C112.911 10.6348 113.123 10.8125 113.377 11.0156C112.852 11.0326 112.387 11.0495 111.98 11.0664C111.574 11.0664 111.227 11.0749 110.939 11.0918C110.618 11.1087 110.33 11.1257 110.076 11.1426C109.822 11.1595 109.509 11.1849 109.137 11.2188C108.798 11.2526 108.383 11.2865 107.893 11.3203C107.402 11.3542 106.801 11.4049 106.09 11.4727C106.513 10.9648 106.843 10.5163 107.08 10.127C107.334 9.7207 107.52 9.36523 107.639 9.06055C107.774 8.73893 107.85 8.45964 107.867 8.22266C107.901 7.98568 107.893 7.78255 107.842 7.61328C107.74 7.22396 107.478 6.94466 107.055 6.77539C105.836 6.43685 104.77 6.70768 103.855 7.58789C102.958 8.45117 102.315 9.87305 101.926 11.8535C101.74 12.8353 101.562 13.8594 101.393 14.9258C101.24 15.9753 101.181 16.9401 101.215 17.8203C101.249 18.6836 101.418 19.3861 101.723 19.9277C102.027 20.4694 102.552 20.7233 103.297 20.6895C104.025 20.6556 104.643 20.5371 105.15 20.334C105.658 20.1139 106.064 19.86 106.369 19.5723C106.674 19.2676 106.885 18.946 107.004 18.6074C107.139 18.252 107.19 17.9219 107.156 17.6172C107.089 17.3802 106.911 17.1263 106.623 16.8555C106.369 16.6185 105.988 16.3561 105.48 16.0684C104.973 15.7637 104.245 15.4505 103.297 15.1289C104.194 15.0781 104.93 15.0443 105.506 15.0273C106.098 14.9935 106.564 14.9596 106.902 14.9258C107.309 14.8919 107.622 14.8665 107.842 14.8496C108.045 14.8327 108.341 14.8158 108.73 14.7988C109.069 14.7819 109.501 14.7734 110.025 14.7734C110.567 14.7734 111.244 14.765 112.057 14.748C111.752 15.0527 111.515 15.332 111.346 15.5859C111.261 15.7214 111.185 15.8398 111.117 15.9414C111.049 16.1107 111.024 16.4577 111.041 16.9824C111.041 17.4225 111.075 18.0742 111.143 18.9375C111.21 19.7839 111.337 20.9434 111.523 22.416L108.146 22.873L108.299 19.4453C107.91 20.3763 107.419 21.0703 106.826 21.5273C106.251 21.9844 105.701 22.306 105.176 22.4922C104.549 22.7122 103.898 22.8138 103.221 22.7969C102.34 22.7122 101.46 22.5091 100.58 22.1875C99.6999 21.8659 98.9212 21.375 98.2441 20.7148C97.5671 20.0378 97.0423 19.166 96.6699 18.0996C96.3145 17.0332 96.2044 15.7129 96.3398 14.1387C96.4922 12.5645 96.8646 11.1934 97.457 10.0254C98.0664 8.84049 98.8197 7.85872 99.7168 7.08008C100.614 6.30143 101.621 5.71745 102.738 5.32812C103.872 4.92188 105.032 4.70182 106.217 4.66797ZM119.471 18.9121C119.945 18.9121 120.385 18.8613 120.791 18.7598C121.13 18.6751 121.451 18.5397 121.756 18.3535C122.077 18.1504 122.289 17.8542 122.391 17.4648C122.729 17.5326 123.017 17.5918 123.254 17.6426C123.491 17.6764 123.694 17.7103 123.863 17.7441C124.049 17.7949 124.21 17.8288 124.346 17.8457C124.481 17.8796 124.642 17.9134 124.828 17.9473C124.997 17.9811 125.201 18.0234 125.438 18.0742C125.691 18.1081 125.988 18.1589 126.326 18.2266C126.072 18.1927 125.81 18.2181 125.539 18.3027C125.285 18.3874 125.04 18.4805 124.803 18.582C124.532 18.7005 124.278 18.8444 124.041 19.0137C123.889 19.1152 123.711 19.2676 123.508 19.4707C123.322 19.6738 123.051 19.8685 122.695 20.0547C122.34 20.2409 121.866 20.4017 121.273 20.5371C120.698 20.6556 119.953 20.6979 119.039 20.6641C117.939 20.6302 117.016 20.4355 116.271 20.0801C115.527 19.7077 114.926 19.2591 114.469 18.7344C114.012 18.1927 113.682 17.6087 113.479 16.9824C113.275 16.3561 113.165 15.7721 113.148 15.2305C113.132 14.6888 113.292 14.1217 113.631 13.5293C113.969 12.9368 114.443 12.3952 115.053 11.9043C115.679 11.4134 116.432 11.0156 117.312 10.7109C118.193 10.3893 119.158 10.2285 120.207 10.2285C120.816 10.2285 121.375 10.3047 121.883 10.457C122.408 10.5924 122.882 10.7786 123.305 11.0156C123.745 11.2526 124.126 11.5234 124.447 11.8281C124.769 12.1159 125.04 12.4121 125.26 12.7168C125.48 13.0384 125.666 13.377 125.818 13.7324C125.954 14.0371 126.064 14.3841 126.148 14.7734C126.233 15.1628 126.258 15.5605 126.225 15.9668C124.938 16.0007 123.897 16.026 123.102 16.043C122.323 16.0599 121.714 16.0684 121.273 16.0684H120.131H119.268C118.963 16.0684 118.565 16.0768 118.074 16.0938C117.583 16.1107 116.982 16.1361 116.271 16.1699C116.356 16.847 116.568 17.3717 116.906 17.7441C117.262 18.0996 117.634 18.3704 118.023 18.5566C118.464 18.7598 118.946 18.8783 119.471 18.9121ZM117.186 14.3418C117.727 14.3757 118.176 14.401 118.531 14.418C118.904 14.4349 119.208 14.4518 119.445 14.4688C119.699 14.4857 119.902 14.4941 120.055 14.4941H120.689C121.113 14.4941 121.9 14.4688 123.051 14.418C123 13.6732 122.839 13.1061 122.568 12.7168C122.314 12.3275 122.044 12.0397 121.756 11.8535C121.417 11.6504 121.045 11.5319 120.639 11.498C119.538 11.515 118.717 11.7435 118.176 12.1836C117.651 12.6237 117.321 13.3431 117.186 14.3418ZM128.027 20.207C128.146 19.6484 128.23 19.1576 128.281 18.7344C128.349 18.2943 128.4 17.9303 128.434 17.6426C128.467 17.304 128.484 17.0163 128.484 16.7793C128.467 16.4915 128.451 16.153 128.434 15.7637C128.434 15.3574 128.417 14.9596 128.383 14.5703C128.366 14.1641 128.34 13.8086 128.307 13.5039C128.273 13.1823 128.23 12.9538 128.18 12.8184C128.112 12.6829 128.019 12.5391 127.9 12.3867C127.663 12.099 127.316 11.8197 126.859 11.5488C127.249 11.4642 127.579 11.3965 127.85 11.3457C128.137 11.278 128.374 11.2188 128.561 11.168C128.764 11.1003 128.941 11.041 129.094 10.9902C129.229 10.9395 129.39 10.8887 129.576 10.8379C129.729 10.804 129.915 10.7617 130.135 10.7109C130.355 10.6602 130.609 10.6009 130.896 10.5332L130.82 12.8438C131.362 12.2005 131.912 11.7181 132.471 11.3965C133.029 11.0749 133.554 10.8464 134.045 10.7109C134.604 10.5417 135.154 10.457 135.695 10.457C136.372 10.4909 136.999 10.6009 137.574 10.7871C138.167 10.9733 138.674 11.1934 139.098 11.4473C139.538 11.6842 139.893 11.9382 140.164 12.209C140.435 12.4798 140.596 12.7168 140.646 12.9199C140.85 13.5801 140.9 14.1895 140.799 14.748C140.697 15.2897 140.562 15.8229 140.393 16.3477C140.24 16.8555 140.105 17.3633 139.986 17.8711C139.885 18.3789 139.927 18.929 140.113 19.5215C140.181 19.6738 140.249 19.8262 140.316 19.9785C140.384 20.1139 140.469 20.2493 140.57 20.3848C140.672 20.5202 140.79 20.6302 140.926 20.7148C140.74 20.6979 140.553 20.6895 140.367 20.6895C140.181 20.6725 140.012 20.6556 139.859 20.6387C139.673 20.6217 139.504 20.6048 139.352 20.5879C139.182 20.571 138.954 20.5625 138.666 20.5625C138.175 20.5625 137.413 20.5879 136.381 20.6387C136.533 20.2832 136.652 19.987 136.736 19.75C136.838 19.4961 136.923 19.293 136.99 19.1406C137.058 18.9544 137.109 18.8105 137.143 18.709C137.346 18.2181 137.464 17.6595 137.498 17.0332C137.549 16.4069 137.507 15.7721 137.371 15.1289C137.32 14.9089 137.236 14.6465 137.117 14.3418C136.999 14.0371 136.838 13.7409 136.635 13.4531C136.449 13.1654 136.22 12.9199 135.949 12.7168C135.695 12.5137 135.399 12.3952 135.061 12.3613C134.722 12.3275 134.341 12.4121 133.918 12.6152C133.512 12.8184 133.072 13.1908 132.598 13.7324C132.242 14.1895 131.963 14.748 131.76 15.4082C131.574 15.9668 131.447 16.6693 131.379 17.5156C131.311 18.3451 131.413 19.3184 131.684 20.4355C131.447 20.4017 131.227 20.3848 131.023 20.3848C130.82 20.3678 130.651 20.3509 130.516 20.334C130.346 20.3171 130.194 20.3001 130.059 20.2832C129.906 20.2832 129.737 20.2747 129.551 20.2578C129.382 20.2578 129.17 20.2578 128.916 20.2578C128.662 20.2409 128.366 20.224 128.027 20.207ZM142.475 11.6504L147.146 11.7012C146.876 12.7337 146.673 13.6139 146.537 14.3418C146.419 15.0697 146.342 15.679 146.309 16.1699C146.241 16.7285 146.224 17.2025 146.258 17.5918C146.309 17.9473 146.393 18.3281 146.512 18.7344C146.613 19.0729 146.766 19.4622 146.969 19.9023C147.172 20.3424 147.443 20.7826 147.781 21.2227C147.578 21.1549 147.358 21.1042 147.121 21.0703C146.884 21.0365 146.664 21.0111 146.461 20.9941C146.224 20.9772 145.987 20.9772 145.75 20.9941C145.513 21.0111 145.251 21.0365 144.963 21.0703C144.726 21.1042 144.438 21.1465 144.1 21.1973C143.761 21.248 143.406 21.3158 143.033 21.4004C143.287 20.6387 143.482 19.9785 143.617 19.4199C143.77 18.8613 143.88 18.3958 143.947 18.0234C144.015 17.5833 144.057 17.2279 144.074 16.957C144.074 16.6185 144.074 16.2376 144.074 15.8145C144.074 15.3743 144.074 14.9512 144.074 14.5449C144.074 14.1387 144.066 13.7832 144.049 13.4785C144.032 13.1569 143.998 12.9538 143.947 12.8691L143.693 12.6152C143.592 12.5306 143.439 12.4121 143.236 12.2598C143.05 12.0905 142.796 11.8874 142.475 11.6504ZM144.277 7.74023C144.633 7.55404 144.988 7.50326 145.344 7.58789C145.716 7.67253 146.004 7.83333 146.207 8.07031C146.41 8.30729 146.478 8.58659 146.41 8.9082C146.359 9.22982 146.089 9.54297 145.598 9.84766C145.107 10.1354 144.675 10.237 144.303 10.1523C143.93 10.0677 143.668 9.88997 143.516 9.61914C143.363 9.34831 143.338 9.03516 143.439 8.67969C143.541 8.30729 143.82 7.99414 144.277 7.74023ZM155.297 18.9121C155.771 18.9121 156.211 18.8613 156.617 18.7598C156.956 18.6751 157.277 18.5397 157.582 18.3535C157.904 18.1504 158.115 17.8542 158.217 17.4648C158.555 17.5326 158.843 17.5918 159.08 17.6426C159.317 17.6764 159.52 17.7103 159.689 17.7441C159.876 17.7949 160.036 17.8288 160.172 17.8457C160.307 17.8796 160.468 17.9134 160.654 17.9473C160.824 17.9811 161.027 18.0234 161.264 18.0742C161.518 18.1081 161.814 18.1589 162.152 18.2266C161.898 18.1927 161.636 18.2181 161.365 18.3027C161.111 18.3874 160.866 18.4805 160.629 18.582C160.358 18.7005 160.104 18.8444 159.867 19.0137C159.715 19.1152 159.537 19.2676 159.334 19.4707C159.148 19.6738 158.877 19.8685 158.521 20.0547C158.166 20.2409 157.692 20.4017 157.1 20.5371C156.524 20.6556 155.779 20.6979 154.865 20.6641C153.765 20.6302 152.842 20.4355 152.098 20.0801C151.353 19.7077 150.752 19.2591 150.295 18.7344C149.838 18.1927 149.508 17.6087 149.305 16.9824C149.102 16.3561 148.992 15.7721 148.975 15.2305C148.958 14.6888 149.118 14.1217 149.457 13.5293C149.796 12.9368 150.27 12.3952 150.879 11.9043C151.505 11.4134 152.258 11.0156 153.139 10.7109C154.019 10.3893 154.984 10.2285 156.033 10.2285C156.643 10.2285 157.201 10.3047 157.709 10.457C158.234 10.5924 158.708 10.7786 159.131 11.0156C159.571 11.2526 159.952 11.5234 160.273 11.8281C160.595 12.1159 160.866 12.4121 161.086 12.7168C161.306 13.0384 161.492 13.377 161.645 13.7324C161.78 14.0371 161.89 14.3841 161.975 14.7734C162.059 15.1628 162.085 15.5605 162.051 15.9668C160.764 16.0007 159.723 16.026 158.928 16.043C158.149 16.0599 157.54 16.0684 157.1 16.0684H155.957H155.094C154.789 16.0684 154.391 16.0768 153.9 16.0938C153.41 16.1107 152.809 16.1361 152.098 16.1699C152.182 16.847 152.394 17.3717 152.732 17.7441C153.088 18.0996 153.46 18.3704 153.85 18.5566C154.29 18.7598 154.772 18.8783 155.297 18.9121ZM153.012 14.3418C153.553 14.3757 154.002 14.401 154.357 14.418C154.73 14.4349 155.035 14.4518 155.271 14.4688C155.525 14.4857 155.729 14.4941 155.881 14.4941H156.516C156.939 14.4941 157.726 14.4688 158.877 14.418C158.826 13.6732 158.665 13.1061 158.395 12.7168C158.141 12.3275 157.87 12.0397 157.582 11.8535C157.243 11.6504 156.871 11.5319 156.465 11.498C155.365 11.515 154.544 11.7435 154.002 12.1836C153.477 12.6237 153.147 13.3431 153.012 14.3418Z" fill="url(#paint0_linear_1_4)"/>
</g>
<g filter="url(#filter1_d_1_4)">
<path d="M31.4988 1.94103C31.5852 1.94103 31.6553 1.86815 31.6553 1.77825C31.6553 1.68836 31.5852 1.61548 31.4988 1.61548C31.4124 1.61548 31.3423 1.68836 31.3423 1.77825C31.3423 1.86815 31.4124 1.94103 31.4988 1.94103Z" fill="url(#paint1_linear_1_4)"/>
</g>
<g filter="url(#filter2_d_1_4)">
<path d="M5.68436 6.03804C5.90861 6.03804 6.09039 5.84898 6.09039 5.61576C6.09039 5.38254 5.90861 5.19348 5.68436 5.19348C5.46011 5.19348 5.27832 5.38254 5.27832 5.61576C5.27832 5.84898 5.46011 6.03804 5.68436 6.03804Z" fill="url(#paint2_linear_1_4)"/>
</g>
<g filter="url(#filter3_d_1_4)">
<path d="M1.50223 18.4063C1.72648 18.4063 1.90827 18.2173 1.90827 17.984C1.90827 17.7508 1.72648 17.5618 1.50223 17.5618C1.27798 17.5618 1.09619 17.7508 1.09619 17.984C1.09619 18.2173 1.27798 18.4063 1.50223 18.4063Z" fill="url(#paint3_linear_1_4)"/>
</g>
<g filter="url(#filter4_d_1_4)">
<path d="M25.5428 21.8016C25.767 21.8016 25.9488 21.6125 25.9488 21.3793C25.9488 21.1461 25.767 20.957 25.5428 20.957C25.3185 20.957 25.1367 21.1461 25.1367 21.3793C25.1367 21.6125 25.3185 21.8016 25.5428 21.8016Z" fill="url(#paint4_linear_1_4)"/>
</g>
<g filter="url(#filter5_d_1_4)">
<path d="M6.52761 14.6515C6.61405 14.6515 6.68412 14.5786 6.68412 14.4887C6.68412 14.3988 6.61405 14.3259 6.52761 14.3259C6.44117 14.3259 6.37109 14.3988 6.37109 14.4887C6.37109 14.5786 6.44117 14.6515 6.52761 14.6515Z" fill="url(#paint5_linear_1_4)"/>
</g>
<g filter="url(#filter6_d_1_4)">
<path d="M12.5243 1.51158C12.6601 1.51158 12.7702 1.39706 12.7702 1.25579C12.7702 1.11452 12.6601 1 12.5243 1C12.3884 1 12.2783 1.11452 12.2783 1.25579C12.2783 1.39706 12.3884 1.51158 12.5243 1.51158Z" fill="url(#paint6_linear_1_4)"/>
</g>
<g filter="url(#filter7_d_1_4)">
<path d="M3.22758 12.9061C3.14757 12.9187 3.07313 12.8679 3.04946 12.783C2.82758 12.0289 2.71089 11.9374 1.98526 11.965C1.90152 11.9675 1.8278 11.906 1.81574 11.8228C1.80352 11.7385 1.85569 11.6595 1.93609 11.6339C2.63013 11.4199 2.70486 11.3161 2.72206 10.5257C2.72411 10.438 2.77857 10.3669 2.85747 10.3545C2.93859 10.3417 3.01192 10.3929 3.03781 10.4773C3.2573 11.2306 3.37399 11.3221 4.09851 11.2946C4.18464 11.2929 4.25691 11.3525 4.26931 11.4379C4.28137 11.521 4.23141 11.5997 4.1488 11.6257C3.45397 11.8421 3.38019 11.9446 3.36521 12.7346C3.36111 12.8239 3.30537 12.894 3.22758 12.9061Z" fill="url(#paint7_linear_1_4)"/>
</g>
<path d="M16.6299 6.19353C16.4189 6.27642 16.2783 6.48608 16.2783 6.72008C16.2783 6.95408 16.4189 7.16364 16.6299 7.24653C18.3127 7.90318 19.6406 9.2842 20.2721 11.0344C20.3517 11.2537 20.5533 11.4001 20.7783 11.4001C21.0033 11.4001 21.2049 11.2537 21.2845 11.0344C21.916 9.2842 23.2439 7.90318 24.9267 7.24653C25.1377 7.16364 25.2783 6.95408 25.2783 6.72008C25.2783 6.48608 25.1377 6.27642 24.9267 6.19353C23.2439 5.53688 21.916 4.15583 21.2845 2.40566C21.2049 2.18629 21.0033 2.04004 20.7783 2.04004C20.5533 2.04004 20.3517 2.18629 20.2721 2.40566C19.6406 4.15583 18.3127 5.53688 16.6299 6.19353ZM10.8924 5.61342C10.7705 5.33553 10.5033 5.16008 10.2127 5.16008C9.92212 5.16008 9.65492 5.33553 9.53302 5.61342C7.93573 9.20006 5.16408 12.0815 1.71426 13.7401C1.44707 13.8667 1.27832 14.1446 1.27832 14.4517C1.27832 14.7589 1.44707 15.0318 1.71426 15.1586C5.16287 16.8151 7.93683 19.698 9.52832 23.2853C9.65022 23.5632 9.91742 23.7386 10.208 23.7386C10.4986 23.7386 10.7658 23.5632 10.8877 23.2853C12.4822 19.6948 15.254 16.8121 18.7064 15.1537C18.9736 15.0271 19.1424 14.7492 19.1424 14.4469C19.1424 14.1446 18.9736 13.8667 18.7064 13.7401C15.2572 12.0849 12.4852 9.19996 10.8924 5.61342ZM20.2721 18.0056C19.6406 19.7558 18.3127 21.1368 16.6299 21.7935C16.4189 21.8764 16.2783 22.0861 16.2783 22.3201C16.2783 22.5541 16.4189 22.7636 16.6299 22.8465C18.3127 23.5032 19.6406 24.8842 20.2721 26.6344C20.3517 26.8537 20.5533 27 20.7783 27C21.0033 27 21.2049 26.8537 21.2845 26.6344C21.916 24.8842 23.2439 23.5032 24.9267 22.8465C25.1377 22.7636 25.2783 22.5541 25.2783 22.3201C25.2783 22.0861 25.1377 21.8764 24.9267 21.7935C23.2439 21.1368 21.916 19.7558 21.2845 18.0056C21.2049 17.7863 21.0033 17.6401 20.7783 17.6401C20.5533 17.6401 20.3517 17.7863 20.2721 18.0056Z" fill="url(#paint8_linear_1_4)"/>
<path d="M12.9717 16.0857C5.80757 18.6733 0.343108 21.7987 0.766468 23.0665C1.18983 24.3342 7.34069 23.2643 14.5048 20.6767C21.6689 18.0891 27.1334 14.9637 26.71 13.696C26.2866 12.4282 20.1358 13.4981 12.9717 16.0857Z" stroke="url(#paint9_linear_1_4)" stroke-width="0.549291"/>
<g style="mix-blend-mode:screen" filter="url(#filter8_f_1_4)">
<path d="M12.9717 16.0855C5.80757 18.6731 0.343108 21.7985 0.766468 23.0662C1.18983 24.334 7.34069 23.2641 14.5048 20.6765C21.6689 18.0889 27.1334 14.9635 26.71 13.6957C26.2866 12.4279 20.1358 13.4979 12.9717 16.0855Z" stroke="url(#paint10_linear_1_4)" stroke-width="0.549291"/>
</g>
<g filter="url(#filter9_d_1_4)">
<path d="M23.872 7.36177C23.7616 7.34534 23.6827 7.24737 23.6838 7.12559C23.6787 6.03816 23.5595 5.86916 22.5907 5.60594C22.4792 5.57474 22.4053 5.46284 22.4211 5.34812C22.4372 5.23175 22.5363 5.14897 22.6522 5.14834C23.6504 5.15229 23.7888 5.046 24.1132 4.0094C24.1494 3.89443 24.2485 3.82298 24.3574 3.8392C24.4694 3.85589 24.5467 3.95363 24.5486 4.07593C24.551 5.16124 24.6701 5.33034 25.6374 5.59325C25.7518 5.62653 25.8245 5.735 25.8083 5.85294C25.7925 5.96765 25.6964 6.05096 25.5774 6.05116C24.5772 6.05012 24.4406 6.15496 24.1193 7.19204C24.0798 7.30821 23.9794 7.37778 23.872 7.36177Z" fill="url(#paint11_linear_1_4)"/>
</g>
</g>
<defs>
<filter id="filter0_d_1_4" x="25.5371" y="3.52539" width="140.615" height="28.1855" filterUnits="userSpaceOnUse" color-interpolation-filters="sRGB">
<feFlood flood-opacity="0" result="BackgroundImageFix"/>
<feColorMatrix in="SourceAlpha" type="matrix" values="0 0 0 0 0 0 0 0 0 0 0 0 0 0 0 0 0 0 127 0" result="hardAlpha"/>
<feOffset dy="4"/>
<feGaussianBlur stdDeviation="2"/>
<feComposite in2="hardAlpha" operator="out"/>
<feColorMatrix type="matrix" values="0 0 0 0 0 0 0 0 0 0 0 0 0 0 0 0 0 0 0.25 0"/>
<feBlend mode="normal" in2="BackgroundImageFix" result="effect1_dropShadow_1_4"/>
<feBlend mode="normal" in="SourceGraphic" in2="effect1_dropShadow_1_4" result="shape"/>
</filter>
<filter id="filter1_d_1_4" x="31.0008" y="1.27399" width="0.99596" height="1.00852" filterUnits="userSpaceOnUse" color-interpolation-filters="sRGB">
<feFlood flood-opacity="0" result="BackgroundImageFix"/>
<feColorMatrix in="SourceAlpha" type="matrix" values="0 0 0 0 0 0 0 0 0 0 0 0 0 0 0 0 0 0 127 0" result="hardAlpha"/>
<feOffset/>
<feGaussianBlur stdDeviation="0.170743"/>
<feComposite in2="hardAlpha" operator="out"/>
<feColorMatrix type="matrix" values="0 0 0 0 0.592157 0 0 0 0 0.392157 0 0 0 0 1 0 0 0 1 0"/>
<feBlend mode="normal" in2="BackgroundImageFix" result="effect1_dropShadow_1_4"/>
<feBlend mode="normal" in="SourceGraphic" in2="effect1_dropShadow_1_4" result="shape"/>
</filter>
<filter id="filter2_d_1_4" x="4.39242" y="4.30758" width="2.58387" height="2.61635" filterUnits="userSpaceOnUse" color-interpolation-filters="sRGB">
<feFlood flood-opacity="0" result="BackgroundImageFix"/>
<feColorMatrix in="SourceAlpha" type="matrix" values="0 0 0 0 0 0 0 0 0 0 0 0 0 0 0 0 0 0 127 0" result="hardAlpha"/>
<feOffset/>
<feGaussianBlur stdDeviation="0.442949"/>
<feComposite in2="hardAlpha" operator="out"/>
<feColorMatrix type="matrix" values="0 0 0 0 0.592157 0 0 0 0 0.392157 0 0 0 0 1 0 0 0 1 0"/>
<feBlend mode="normal" in2="BackgroundImageFix" result="effect1_dropShadow_1_4"/>
<feBlend mode="normal" in="SourceGraphic" in2="effect1_dropShadow_1_4" result="shape"/>
</filter>
<filter id="filter3_d_1_4" x="0.210293" y="16.6759" width="2.58387" height="2.61629" filterUnits="userSpaceOnUse" color-interpolation-filters="sRGB">
<feFlood flood-opacity="0" result="BackgroundImageFix"/>
<feColorMatrix in="SourceAlpha" type="matrix" values="0 0 0 0 0 0 0 0 0 0 0 0 0 0 0 0 0 0 127 0" result="hardAlpha"/>
<feOffset/>
<feGaussianBlur stdDeviation="0.442949"/>
<feComposite in2="hardAlpha" operator="out"/>
<feColorMatrix type="matrix" values="0 0 0 0 0.592157 0 0 0 0 0.392157 0 0 0 0 1 0 0 0 1 0"/>
<feBlend mode="normal" in2="BackgroundImageFix" result="effect1_dropShadow_1_4"/>
<feBlend mode="normal" in="SourceGraphic" in2="effect1_dropShadow_1_4" result="shape"/>
</filter>
<filter id="filter4_d_1_4" x="24.2508" y="20.0711" width="2.5839" height="2.6164" filterUnits="userSpaceOnUse" color-interpolation-filters="sRGB">
<feFlood flood-opacity="0" result="BackgroundImageFix"/>
<feColorMatrix in="SourceAlpha" type="matrix" values="0 0 0 0 0 0 0 0 0 0 0 0 0 0 0 0 0 0 127 0" result="hardAlpha"/>
<feOffset/>
<feGaussianBlur stdDeviation="0.442949"/>
<feComposite in2="hardAlpha" operator="out"/>
<feColorMatrix type="matrix" values="0 0 0 0 0.592157 0 0 0 0 0.392157 0 0 0 0 1 0 0 0 1 0"/>
<feBlend mode="normal" in2="BackgroundImageFix" result="effect1_dropShadow_1_4"/>
<feBlend mode="normal" in="SourceGraphic" in2="effect1_dropShadow_1_4" result="shape"/>
</filter>
<filter id="filter5_d_1_4" x="6.02961" y="13.9844" width="0.995991" height="1.00856" filterUnits="userSpaceOnUse" color-interpolation-filters="sRGB">
<feFlood flood-opacity="0" result="BackgroundImageFix"/>
<feColorMatrix in="SourceAlpha" type="matrix" values="0 0 0 0 0 0 0 0 0 0 0 0 0 0 0 0 0 0 127 0" result="hardAlpha"/>
<feOffset/>
<feGaussianBlur stdDeviation="0.170743"/>
<feComposite in2="hardAlpha" operator="out"/>
<feColorMatrix type="matrix" values="0 0 0 0 0.592157 0 0 0 0 0.392157 0 0 0 0 1 0 0 0 1 0"/>
<feBlend mode="normal" in2="BackgroundImageFix" result="effect1_dropShadow_1_4"/>
<feBlend mode="normal" in="SourceGraphic" in2="effect1_dropShadow_1_4" result="shape"/>
</filter>
<filter id="filter6_d_1_4" x="11.7417" y="0.463378" width="1.56516" height="1.58483" filterUnits="userSpaceOnUse" color-interpolation-filters="sRGB">
<feFlood flood-opacity="0" result="BackgroundImageFix"/>
<feColorMatrix in="SourceAlpha" type="matrix" values="0 0 0 0 0 0 0 0 0 0 0 0 0 0 0 0 0 0 127 0" result="hardAlpha"/>
<feOffset/>
<feGaussianBlur stdDeviation="0.268311"/>
<feComposite in2="hardAlpha" operator="out"/>
<feColorMatrix type="matrix" values="0 0 0 0 0.592157 0 0 0 0 0.392157 0 0 0 0 1 0 0 0 1 0"/>
<feBlend mode="normal" in2="BackgroundImageFix" result="effect1_dropShadow_1_4"/>
<feBlend mode="normal" in="SourceGraphic" in2="effect1_dropShadow_1_4" result="shape"/>
</filter>
<filter id="filter7_d_1_4" x="0.732341" y="9.55254" width="4.62037" height="4.71871" filterUnits="userSpaceOnUse" color-interpolation-filters="sRGB">
<feFlood flood-opacity="0" result="BackgroundImageFix"/>
<feColorMatrix in="SourceAlpha" type="matrix" values="0 0 0 0 0 0 0 0 0 0 0 0 0 0 0 0 0 0 127 0" result="hardAlpha"/>
<feOffset dy="0.281606"/>
<feGaussianBlur stdDeviation="0.540812"/>
<feComposite in2="hardAlpha" operator="out"/>
<feColorMatrix type="matrix" values="0 0 0 0 0.220722 0 0 0 0 0.210451 0 0 0 0 0.241667 0 0 0 0.6 0"/>
<feBlend mode="normal" in2="BackgroundImageFix" result="effect1_dropShadow_1_4"/>
<feBlend mode="normal" in="SourceGraphic" in2="effect1_dropShadow_1_4" result="shape"/>
</filter>
<filter id="filter8_f_1_4" x="0.214238" y="12.6334" width="27.048" height="11.4952" filterUnits="userSpaceOnUse" color-interpolation-filters="sRGB">
<feFlood flood-opacity="0" result="BackgroundImageFix"/>
<feBlend mode="normal" in="SourceGraphic" in2="BackgroundImageFix" result="shape"/>
<feGaussianBlur stdDeviation="0.127195" result="effect1_foregroundBlur_1_4"/>
</filter>
<filter id="filter9_d_1_4" x="20.2885" y="2.26113" width="7.65249" height="7.78805" filterUnits="userSpaceOnUse" color-interpolation-filters="sRGB">
<feFlood flood-opacity="0" result="BackgroundImageFix"/>
<feColorMatrix in="SourceAlpha" type="matrix" values="0 0 0 0 0 0 0 0 0 0 0 0 0 0 0 0 0 0 127 0" result="hardAlpha"/>
<feOffset dy="0.554677"/>
<feGaussianBlur stdDeviation="1.06523"/>
<feComposite in2="hardAlpha" operator="out"/>
<feColorMatrix type="matrix" values="0 0 0 0 0.296824 0 0 0 0 0.244184 0 0 0 0 0.404167 0 0 0 0.6 0"/>
<feBlend mode="normal" in2="BackgroundImageFix" result="effect1_dropShadow_1_4"/>
<feBlend mode="normal" in="SourceGraphic" in2="effect1_dropShadow_1_4" result="shape"/>
</filter>
<linearGradient id="paint0_linear_1_4" x1="32" y1="13.5" x2="36.7536" y2="39.1771" gradientUnits="userSpaceOnUse">
<stop stop-color="#868CFF"/>
<stop offset="1" stop-color="#4318FF"/>
</linearGradient>
<linearGradient id="paint1_linear_1_4" x1="31.3515" y1="1.76142" x2="31.6627" y2="1.7677" gradientUnits="userSpaceOnUse">
<stop stop-color="#26A4FF"/>
<stop offset="1" stop-color="#0D9AFF"/>
</linearGradient>
<linearGradient id="paint2_linear_1_4" x1="5.30238" y1="5.57208" x2="6.10973" y2="5.58843" gradientUnits="userSpaceOnUse">
<stop stop-color="#26A4FF"/>
<stop offset="1" stop-color="#0D9AFF"/>
</linearGradient>
<linearGradient id="paint3_linear_1_4" x1="1.12025" y1="17.9404" x2="1.92761" y2="17.9566" gradientUnits="userSpaceOnUse">
<stop stop-color="#26A4FF"/>
<stop offset="1" stop-color="#0D9AFF"/>
</linearGradient>
<linearGradient id="paint4_linear_1_4" x1="25.1609" y1="21.3356" x2="25.9682" y2="21.352" gradientUnits="userSpaceOnUse">
<stop stop-color="#26A4FF"/>
<stop offset="1" stop-color="#0D9AFF"/>
</linearGradient>
<linearGradient id="paint5_linear_1_4" x1="6.38037" y1="14.472" x2="6.69158" y2="14.4782" gradientUnits="userSpaceOnUse">
<stop stop-color="#26A4FF"/>
<stop offset="1" stop-color="#0D9AFF"/>
</linearGradient>
<linearGradient id="paint6_linear_1_4" x1="12.2929" y1="1.22933" x2="12.7819" y2="1.23921" gradientUnits="userSpaceOnUse">
<stop stop-color="#26A4FF"/>
<stop offset="1" stop-color="#0D9AFF"/>
</linearGradient>
<linearGradient id="paint7_linear_1_4" x1="4.17747" y1="11.3173" x2="1.74065" y2="11.7212" gradientUnits="userSpaceOnUse">
<stop stop-color="#26A4FF"/>
<stop offset="1" stop-color="#0D9AFF"/>
</linearGradient>
<linearGradient id="paint8_linear_1_4" x1="1.27832" y1="2.04004" x2="26.2191" y2="26.0216" gradientUnits="userSpaceOnUse">
<stop stop-color="#868CFF"/>
<stop offset="1" stop-color="#4318FF"/>
</linearGradient>
<linearGradient id="paint9_linear_1_4" x1="1.18252" y1="24.8028" x2="0.114126" y2="21.7888" gradientUnits="userSpaceOnUse">
<stop stop-color="#3F5FFF"/>
<stop offset="1" stop-color="#3F5FFF" stop-opacity="0"/>
</linearGradient>
<linearGradient id="paint10_linear_1_4" x1="1.18252" y1="24.8025" x2="0.114125" y2="21.7886" gradientUnits="userSpaceOnUse">
<stop stop-color="#1DA0FF"/>
<stop offset="1" stop-color="#199FFF" stop-opacity="0.13"/>
</linearGradient>
<linearGradient id="paint11_linear_1_4" x1="25.733" y1="5.65576" x2="22.3517" y2="5.25926" gradientUnits="userSpaceOnUse">
<stop stop-color="#26A4FF"/>
<stop offset="1" stop-color="#0D9AFF"/>
</linearGradient>
<clipPath id="clip0_1_4">
<rect width="168" height="27" fill="white"/>
</clipPath>
</defs>
</svg>
